<?xml version="1.0" standalone="no"?>
<!DOCTYPE svg PUBLIC "-//W3C//DTD SVG 20010904//EN"
 "http://www.w3.org/TR/2001/REC-SVG-20010904/DTD/svg10.dtd">
<svg version="1.0" xmlns="http://www.w3.org/2000/svg"
 width="512.000000pt" height="512.000000pt" viewBox="0 0 512.000000 512.000000"
 preserveAspectRatio="xMidYMid meet">

<g transform="translate(0.000000,512.000000) scale(0.100000,-0.100000)"
fill="#000000" stroke="none">
<path d="M2400 5090 c-240 -52 -517 -171 -807 -346 -183 -110 -560 -368 -683
-467 -337 -272 -611 -581 -828 -932 l-74 -120 7 -135 c18 -367 51 -624 126
-975 98 -458 237 -857 445 -1276 150 -302 273 -464 402 -532 155 -82 549 -192
862 -241 544 -85 1077 -74 1625 35 236 47 596 163 687 221 107 67 224 221 342
449 353 680 571 1510 602 2285 l7 172 -38 63 c-251 417 -575 775 -961 1061
-109 81 -408 283 -541 366 -372 233 -792 394 -1020 391 -37 0 -106 -9 -153
-19z m202 -840 c17 -17 47 -39 67 -49 20 -11 44 -28 54 -39 19 -21 19 -1 -19
-704 -5 -104 -4 -119 10 -124 9 -4 18 -5 20 -3 2 2 13 186 24 408 24 490 17
475 155 343 45 -43 91 -83 101 -89 19 -10 18 -20 -33 -369 -29 -198 -54 -367
-57 -376 -4 -13 0 -18 15 -18 12 0 21 2 21 5 0 3 9 60 19 128 11 67 36 232 56
367 20 134 38 246 39 247 5 5 205 -25 218 -33 36 -20 108 -79 108 -89 0 -6
-22 -18 -50 -28 -56 -20 -91 -59 -115 -128 -21 -57 -35 -123 -150 -684 -53
-258 -100 -476 -104 -484 -7 -11 -11 -9 -21 10 -7 13 -69 81 -138 151 l-125
127 24 53 c18 41 23 70 23 128 -1 88 -12 118 -112 309 l-70 133 -76 -144 c-42
-80 -83 -164 -91 -188 -22 -62 -19 -168 6 -235 l21 -56 -124 -127 c-69 -70
-130 -138 -137 -150 -7 -13 -14 -22 -16 -20 -2 1 -58 263 -125 582 -85 406
-128 593 -145 626 -27 53 -73 97 -113 106 -43 11 -45 15 -20 41 31 34 91 71
142 89 38 14 151 22 161 12 4 -3 115 -723 115 -743 0 -3 9 -5 21 -5 17 0 20 5
15 28 -13 63 -107 715 -104 722 2 4 48 46 102 94 158 137 149 153 170 -304 10
-201 18 -381 19 -400 1 -24 7 -36 20 -38 22 -4 22 12 -2 463 -11 203 -14 347
-9 358 5 9 30 28 56 41 26 13 60 38 76 55 17 17 34 31 39 31 5 0 22 -14 39
-30z m84 -1140 c27 -76 30 -127 9 -197 -15 -50 -101 -193 -126 -208 -16 -10
-48 28 -99 120 -85 152 -75 240 51 456 l41 71 50 -88 c28 -49 61 -118 74 -154z
m1748 -182 c60 -97 112 -209 131 -283 36 -141 7 -328 -61 -392 -61 -57 -248
-132 -331 -133 -17 0 -23 -6 -23 -21 0 -20 4 -21 49 -15 64 8 179 48 248 86
31 16 59 27 62 24 15 -15 3 -124 -19 -168 -33 -69 -68 -90 -210 -126 -198 -49
-200 -50 -200 -65 0 -8 3 -16 8 -18 17 -11 198 25 268 53 42 16 77 30 78 30 8
0 -15 -102 -28 -128 -32 -62 -70 -79 -268 -123 -91 -20 -108 -27 -108 -43 0
-17 5 -18 69 -12 38 3 98 15 133 26 34 11 65 20 67 20 7 0 -11 -75 -25 -103
-25 -47 -81 -103 -121 -120 -21 -9 -114 -27 -206 -41 -93 -14 -173 -28 -178
-32 -5 -3 -9 -12 -9 -21 0 -14 13 -15 98 -10 53 4 139 17 190 31 50 13 92 21
92 17 0 -18 -85 -137 -130 -182 -28 -28 -76 -62 -108 -77 -52 -25 -67 -27
-177 -27 -113 1 -139 5 -435 73 -173 40 -322 75 -330 78 -19 7 62 49 200 104
145 58 176 76 238 133 63 61 98 117 118 189 29 110 15 221 -65 506 -65 232
-64 341 6 435 25 33 32 37 63 34 19 -3 116 -36 215 -75 243 -95 318 -116 431
-116 84 -1 94 1 139 29 33 21 57 47 79 85 28 49 31 65 34 156 4 92 -12 222
-34 279 -14 35 7 10 50 -57z m-3709 0 c-9 -29 -19 -101 -22 -159 -7 -139 11
-204 77 -270 109 -109 240 -94 666 75 78 31 153 56 167 56 17 0 34 -12 53 -37
39 -52 53 -98 54 -179 0 -71 -6 -100 -89 -410 -65 -243 -46 -391 66 -515 57
-63 109 -94 265 -157 79 -33 160 -68 181 -79 l38 -19 -91 -12 c-50 -7 -161
-33 -248 -59 -237 -69 -346 -93 -439 -93 -181 0 -307 81 -397 258 -19 38 -21
37 75 13 41 -10 120 -21 177 -25 98 -7 102 -6 102 14 0 18 -6 20 -64 20 -83 0
-219 24 -290 51 -84 32 -122 71 -156 159 -15 41 -27 76 -25 78 2 2 32 -5 67
-17 35 -11 96 -23 136 -27 62 -6 72 -4 72 10 0 17 -10 20 -118 36 -83 12 -179
48 -227 84 -27 21 -35 37 -49 97 -9 40 -15 74 -13 76 2 2 29 -8 60 -22 30 -14
95 -32 144 -40 113 -19 143 -19 143 -1 0 15 -9 18 -130 37 -130 20 -227 68
-263 128 -14 24 -40 188 -32 199 2 2 31 -13 67 -32 39 -22 105 -45 171 -61 59
-14 109 -25 112 -25 3 0 5 9 5 20 0 13 -7 20 -18 20 -37 0 -174 40 -225 65
-86 43 -117 68 -139 110 -87 167 -52 395 97 625 25 40 48 70 51 67 3 -3 -2
-29 -11 -59z m1710 -235 c-18 -187 -60 -259 -293 -508 -66 -70 -74 -76 -69
-50 3 17 9 50 13 75 10 70 53 199 88 265 30 57 236 285 258 285 6 0 7 -27 3
-67z m448 -122 c73 -83 140 -255 163 -416 l7 -50 -70 75 c-194 209 -241 274
-273 378 -12 38 -20 93 -20 135 l0 70 77 -74 c43 -41 95 -94 116 -118z m-281
110 l36 42 5 -29 c3 -16 9 -54 12 -85 7 -60 46 -152 95 -224 17 -24 88 -107
159 -185 83 -89 136 -156 147 -185 11 -25 23 -45 27 -45 21 0 118 75 137 105
31 51 34 93 15 217 -21 130 -16 203 18 263 32 56 79 85 138 85 l48 0 -30 -48
c-64 -104 -61 -212 15 -484 60 -212 69 -263 64 -365 -3 -76 -9 -97 -37 -151
-58 -108 -126 -157 -341 -242 -134 -54 -208 -91 -310 -159 -47 -31 -89 -60
-95 -63 -6 -4 -11 17 -11 53 -2 50 -11 78 -58 177 -36 76 -62 118 -73 120 -28
4 -124 -211 -131 -293 l-5 -63 -91 60 c-108 72 -222 129 -370 188 -193 77
-277 150 -316 276 -36 119 -27 196 57 490 43 154 48 179 48 274 0 91 -4 111
-24 150 -13 25 -30 53 -39 63 -14 16 -13 17 19 17 88 0 146 -40 174 -119 19
-55 19 -120 0 -249 -18 -121 -9 -173 37 -220 28 -30 117 -87 122 -80 2 1 13
25 26 51 12 27 57 85 99 130 245 262 286 332 306 511 l7 58 42 -41 43 -42 35
42z m49 -1457 c15 -66 6 -115 -30 -153 -54 -57 -128 -27 -152 61 -13 49 -6 82
38 183 52 119 51 118 94 33 21 -40 43 -96 50 -124z m-361 -193 c47 -11 121
-32 165 -48 l80 -28 3 -79 c3 -78 3 -78 -20 -72 -158 46 -248 60 -388 60 -175
-1 -238 -15 -445 -105 -200 -87 -214 -93 -222 -85 -4 3 4 40 18 82 l24 75 195
94 c107 52 222 101 255 109 87 21 234 19 335 -3z m885 -1 c62 -16 283 -114
425 -189 20 -11 71 -165 55 -169 -7 -2 -90 32 -186 74 -240 105 -288 117 -474
118 -145 0 -235 -14 -393 -60 -23 -6 -23 -6 -20 72 l3 79 93 32 c192 67 351
80 497 43z m-885 -210 c36 -6 107 -23 158 -37 l92 -27 0 -63 c0 -35 -4 -63
-10 -63 -5 0 -74 21 -152 47 -133 43 -151 47 -248 47 -126 1 -180 -14 -410
-111 -157 -67 -283 -113 -306 -113 -9 0 -7 16 7 60 20 58 22 60 76 80 31 12
111 45 177 74 133 59 225 90 301 105 69 12 237 13 315 1z m850 -1 c84 -13 166
-42 374 -132 l169 -73 19 -54 c10 -29 15 -56 12 -59 -8 -8 -187 57 -337 123
-181 80 -259 100 -387 100 -98 0 -114 -3 -244 -47 -77 -26 -146 -47 -153 -47
-9 0 -13 18 -13 64 l0 63 73 21 c162 48 348 64 487 41z"/>
<path d="M2531 2494 c-16 -63 -59 -156 -142 -305 -94 -171 -131 -273 -132
-369 -1 -90 22 -149 77 -197 46 -41 72 -48 149 -38 34 4 76 6 92 5 115 -10
170 -5 203 18 43 31 83 112 89 182 9 91 -17 167 -147 425 -66 132 -124 259
-130 283 -15 60 -44 58 -59 -4z m163 -311 c93 -174 136 -286 136 -360 0 -151
-91 -234 -217 -198 -37 11 -59 12 -78 5 -48 -18 -129 -12 -166 13 -75 50 -96
176 -51 307 24 71 143 301 157 303 4 1 25 -43 46 -98 45 -119 50 -190 19 -280
-25 -72 -25 -75 -1 -75 31 0 56 87 55 195 0 83 -3 98 -43 194 -47 114 -48 130
-11 216 l22 50 23 -57 c13 -32 62 -129 109 -215z"/>
</g>
</svg>
